# xmcd
#
# Track frame offsets: 
#        150
#        14740
#        33352
#        49020
#        69607
#        86412
#        102387
#        117235
#        133965
#        148415
#        161585
#        175820
#
# Disc length: 2555 seconds
#
# Revision: 2
# Processed by: cddbd v1.4PL0 Copyright (c) Steve Scherf et al.
# Submitted via: ExactAudioCopy v0.90b4
#
DISCID=ae09f90c
DTITLE=Eddy Raven - Living in Black and White
DYEAR=2000
DGENRE=Country
TTITLE0=Living In Black and White
TTITLE1=Don't Worry About Me
TTITLE2=A Little Bit More
TTITLE3=Blue Cajun Moon
TTITLE4=Til' I Can't Hold You Anymore
TTITLE5=Hearing It In French
TTITLE6=Bermuda Triangle
TTITLE7=You Don't Have To Life With It
TTITLE8=Cowboys Don't Cry
TTITLE9=Coldest Fire
TTITLE10=If Wishing Only Made It So
TTITLE11=New Orleans Is A Mighty Good Town
EXTD=Fixed filenames (scanner1)
EXTT0=
EXTT1=
EXTT2=
EXTT3=
EXTT4=
EXTT5=
EXTT6=
EXTT7=
EXTT8=
EXTT9=
EXTT10=
EXTT11=
PLAYORDER=
